<svg xmlns="http://www.w3.org/2000/svg" viewBox="0 0 452 512">
  <path fill="#ababab" d="M 41.085 460.819 L 0 0 L 451.456 0 L 410.327 460.746 L 225.452 512 L 41.085 460.819 Z"/>
  <path fill="#cbcbcb" d="M 375.116 431.408 L 410.264 37.678 L 225.728 37.678 L 225.728 472.824 L 375.116 431.408 Z"/>
  <path fill="#2b2d30" d="M 94.188 208.59 L 99.253 265.107 L 225.728 265.107 L 225.728 208.59 L 94.188 208.59 Z M 89.147 150.715 L 225.728 150.715 L 225.728 94.197 L 84.009 94.197 L 89.147 150.715 Z M 225.728 355.372 L 225.48 355.438 L 162.536 338.442 L 158.513 293.366 L 101.777 293.366 L 109.696 382.107 L 225.468 414.247 L 225.728 414.174 L 225.728 355.372 Z"/>
  <path fill="#2b2d30" d="M 225.533 208.59 L 225.533 265.107 L 295.128 265.107 L 288.568 338.406 L 225.533 355.419 L 225.533 414.219 L 341.397 382.107 L 342.247 372.558 L 355.527 223.766 L 356.907 208.59 L 367.11 94.197 L 225.533 94.197 L 225.533 150.715 L 305.172 150.715 L 300.028 208.59 L 225.533 208.59 Z"/>
</svg>