<svg xmlns="http://www.w3.org/2000/svg" viewBox="0 0 451 512">
  <path fill="#ababab" d="M 41 460 L 0 0 L 451 0 L 410 460 L 225 512"/>
  <path fill="#cbcbcb" d="M 226 472 L 375 431 L 410 37 L 226 37"/>
  <path fill="#2b2d30" d="M 226 208 L 151 208 L 146 150 L 226 150 L 226 94 L 225 94 L 84 94 L 85 109 L 99 265 L 226 265 L 226 208 Z M 226 355 L 225 355 L 162 338 L 158 293 L 128 293 L 102 293 L 109 382 L 225 414 L 226 414 L 226 355 Z"/>
  <path fill="#2b2d30" d="M 225 208 L 225 265 L 295 265 L 288 338 L 225 355 L 225 414 L 341 382 L 342 372 L 355 223 L 357 208 L 341 208 L 225 208 Z M 225 94 L 225 129 L 225 150 L 362 150 L 363 138 L 366 109 L 367 94 L 225 94 Z"/>
</svg>